REM DIRINDEX 1\5,1\2\6,1\2\7,1\3\8,1\3\9,1\4\10,1\4\11,1\4\12
REM DIRNAME folder01,folder02,folder03,folder04,folder05,folder06,folder07,folder08,folder09,folder10,folder11,folder12
TITLE ""
FILE "EJE_DB3000_5th_1A_06.mp3" MP3
  TRACK 01 AUDIO
    TITLE "0:"
    INDEX 01 00:00:00
  TRACK 02 AUDIO
    TITLE "10:cjc026_07020"
    INDEX 01 00:00:05
  TRACK 03 AUDIO
    TITLE "0:"
    INDEX 01 00:00:70
  TRACK 04 AUDIO
    TITLE "11:cjc026_07021"
    INDEX 01 00:01:21
  TRACK 05 AUDIO
    TITLE "0:"
    INDEX 01 00:02:22
  TRACK 06 AUDIO
    TITLE "12:cjc026_07022"
    INDEX 01 00:02:45
  TRACK 07 AUDIO
    TITLE "0:"
    INDEX 01 00:03:37
  TRACK 08 AUDIO
    TITLE "10:cjc026_07023"
    INDEX 01 00:03:63
  TRACK 09 AUDIO
    TITLE "0:"
    INDEX 01 00:04:60
  TRACK 10 AUDIO
    TITLE "11:cjc026_07024"
    INDEX 01 00:05:10
  TRACK 11 AUDIO
    TITLE "0:"
    INDEX 01 00:06:41
  TRACK 12 AUDIO
    TITLE "12:cjc026_07025"
    INDEX 01 00:06:67
  TRACK 13 AUDIO
    TITLE "0:"
    INDEX 01 00:07:64
  TRACK 14 AUDIO
    TITLE "10:cjc026_07026"
    INDEX 01 00:08:15
  TRACK 15 AUDIO
    TITLE "0:"
    INDEX 01 00:09:04
  TRACK 16 AUDIO
    TITLE "11:cjc026_07027"
    INDEX 01 00:09:30
  TRACK 17 AUDIO
    TITLE "0:"
    INDEX 01 00:10:29
  TRACK 18 AUDIO
    TITLE "12:cjc026_07028"
    INDEX 01 00:10:55
  TRACK 19 AUDIO
    TITLE "0:"
    INDEX 01 00:11:42
  TRACK 20 AUDIO
    TITLE "10:cjc026_07029"
    INDEX 01 00:11:68
  TRACK 21 AUDIO
    TITLE "0:"
    INDEX 01 00:12:60
  TRACK 22 AUDIO
    TITLE "11:cjc026_07030"
    INDEX 01 00:13:10
  TRACK 23 AUDIO
    TITLE "0:"
    INDEX 01 00:14:09
  TRACK 24 AUDIO
    TITLE "12:cjc026_07031"
    INDEX 01 00:14:35
  TRACK 25 AUDIO
    TITLE "0:"
    INDEX 01 00:15:27
  TRACK 26 AUDIO
    TITLE "10:cjc026_07032"
    INDEX 01 00:15:52
  TRACK 27 AUDIO
    TITLE "0:"
    INDEX 01 00:16:38
  TRACK 28 AUDIO
    TITLE "11:cjc026_07033"
    INDEX 01 00:16:65
  TRACK 29 AUDIO
    TITLE "0:"
    INDEX 01 00:17:55
  TRACK 30 AUDIO
    TITLE "12:cjc026_07034"
    INDEX 01 00:18:05
  TRACK 31 AUDIO
    TITLE "0:"
    INDEX 01 00:18:66
  TRACK 32 AUDIO
    TITLE "10:cjc026_07035"
    INDEX 01 00:19:16
  TRACK 33 AUDIO
    TITLE "0:"
    INDEX 01 00:20:06
  TRACK 34 AUDIO
    TITLE "11:cjc026_07036"
    INDEX 01 00:20:32
  TRACK 35 AUDIO
    TITLE "0:"
    INDEX 01 00:21:17
  TRACK 36 AUDIO
    TITLE "12:cjc026_07037"
    INDEX 01 00:21:45
  TRACK 37 AUDIO
    TITLE "0:"
    INDEX 01 00:22:34
  TRACK 38 AUDIO
    TITLE "10:cjc026_07038"
    INDEX 01 00:22:60
  TRACK 39 AUDIO
    TITLE "0:"
    INDEX 01 00:23:50
  TRACK 40 AUDIO
    TITLE "11:cjc026_07039"
    INDEX 01 00:24:00
  TRACK 41 AUDIO
    TITLE "0:"
    INDEX 01 00:24:63
  TRACK 42 AUDIO
    TITLE "12:cjc026_07040"
    INDEX 01 00:25:13
  TRACK 43 AUDIO
    TITLE "0:"
    INDEX 01 00:26:03
  TRACK 44 AUDIO
    TITLE "10:cjc026_07041"
    INDEX 01 00:26:32
  TRACK 45 AUDIO
    TITLE "0:"
    INDEX 01 00:27:22
  TRACK 46 AUDIO
    TITLE "11:cjc026_07042"
    INDEX 01 00:27:49
  TRACK 47 AUDIO
    TITLE "0:"
    INDEX 01 00:28:43
  TRACK 48 AUDIO
    TITLE "12:cjc026_07043"
    INDEX 01 00:28:70
  TRACK 49 AUDIO
    TITLE "0:"
    INDEX 01 00:29:60
  TRACK 50 AUDIO
    TITLE "10:cjc026_07044"
    INDEX 01 00:30:12
  TRACK 51 AUDIO
    TITLE "0:"
    INDEX 01 00:31:04
  TRACK 52 AUDIO
    TITLE "11:cjc026_07045"
    INDEX 01 00:31:29
  TRACK 53 AUDIO
    TITLE "0:"
    INDEX 01 00:32:17
  TRACK 54 AUDIO
    TITLE "12:cjc026_07046"
    INDEX 01 00:32:43
  TRACK 55 AUDIO
    TITLE "0:"
    INDEX 01 00:33:32
  TRACK 56 AUDIO
    TITLE "10:cjc026_07047"
    INDEX 01 00:33:60
  TRACK 57 AUDIO
    TITLE "0:"
    INDEX 01 00:34:47
  TRACK 58 AUDIO
    TITLE "11:cjc026_07048"
    INDEX 01 00:35:02
  TRACK 59 AUDIO
    TITLE "0:"
    INDEX 01 00:35:70
  TRACK 60 AUDIO
    TITLE "12:cjc026_07049"
    INDEX 01 00:36:25
  TRACK 61 AUDIO
    TITLE "0:"
    INDEX 01 00:37:10
  TRACK 62 AUDIO
    TITLE "10:cjc026_07050"
    INDEX 01 00:37:40
  TRACK 63 AUDIO
    TITLE "0:"
    INDEX 01 00:38:30
  TRACK 64 AUDIO
    TITLE "11:cjc026_07051"
    INDEX 01 00:38:55
  TRACK 65 AUDIO
    TITLE "0:"
    INDEX 01 00:39:49
  TRACK 66 AUDIO
    TITLE "12:cjc026_07052"
    INDEX 01 00:39:74
  TRACK 67 AUDIO
    TITLE "0:"
    INDEX 01 00:40:66
  TRACK 68 AUDIO
    TITLE "10:cjc026_07053"
    INDEX 01 00:41:14
  TRACK 69 AUDIO
    TITLE "0:"
    INDEX 01 00:42:08
  TRACK 70 AUDIO
    TITLE "11:cjc026_07054"
    INDEX 01 00:42:33
  TRACK 71 AUDIO
    TITLE "0:"
    INDEX 01 00:44:54
  TRACK 72 AUDIO
    TITLE "12:cjc026_07055"
    INDEX 01 00:45:02
  TRACK 73 AUDIO
    TITLE "0:"
    INDEX 01 00:45:71
  TRACK 74 AUDIO
    TITLE "10:cjc026_07056"
    INDEX 01 00:46:21
  TRACK 75 AUDIO
    TITLE "0:"
    INDEX 01 00:47:19
  TRACK 76 AUDIO
    TITLE "11:cjc026_07057"
    INDEX 01 00:47:46
  TRACK 77 AUDIO
    TITLE "0:"
    INDEX 01 00:48:40
  TRACK 78 AUDIO
    TITLE "12:cjc026_07058"
    INDEX 01 00:48:65
  TRACK 79 AUDIO
    TITLE "0:"
    INDEX 01 00:49:65
